<svg xmlns="http://www.w3.org/2000/svg" width="200" height="200" class="icon" p-id="717" t="1591690694719" version="1.1" viewBox="0 0 1024 1024"><defs><style type="text/css"/></defs><path fill="#F4F5F9" d="M512 512m-512 0a512 512 0 1 0 1024 0 512 512 0 1 0-1024 0Z" p-id="718"/><path fill="#3A7FF6" d="M695.04 258.2784H328.96a35.9296 35.9296 0 0 0-36.0448 36.0448v435.6352a35.9296 35.9296 0 0 0 36.0448 36.0448h366.08a35.9296 35.9296 0 0 0 36.0448-36.0448V294.3232a35.9296 35.9296 0 0 0-36.0448-36.0448z m-187.5456 39.424v183.6032L461.312 452.864a17.472 17.472 0 0 0-9.0112-2.5344c-3.0976 0-6.1952 0.8448-9.0112 2.5344l-45.6192 28.4416V297.7024h109.824z m-178.5344-5.632h34.9184v219.648c0 6.1952 3.3792 11.8272 8.7296 14.6432 5.3504 3.0976 11.8272 2.816 17.1776-0.2816l62.7968-38.8608 62.7968 38.8608c2.816 1.6896 5.9136 2.5344 9.0112 2.5344 2.816 0 5.632-0.8448 8.1664-2.2528 5.3504-3.0976 8.7296-8.7296 8.7296-14.6432v-219.648H695.04a2.432 2.432 0 0 1 2.2528 2.2528v351.7184H326.7072V294.3232c0-1.408 1.1264-2.2528 2.2528-2.2528z m366.08 439.8592H328.96a2.432 2.432 0 0 1-2.2528-2.2528V679.552h370.5856v50.1248c0 1.408-1.1264 2.2528-2.2528 2.2528z" p-id="719"/><path fill="#3A7FF6" fill-opacity=".15" d="M378.3552 317.7344v-9.6768 423.872h318.9376V317.7344z" p-id="720"/></svg>